# xmcd
#
# Track frame offsets: 
#        150
#        22742
#        43727
#        62301
#        81869
#        103436
#        123403
#        145178
#        164852
#        191275
#
# Disc length: 2810 seconds
#
# Revision: 0
# Processed by: cddbd v1.5.2PL0 Copyright (c) Steve Scherf et al.
# Submitted via: ExactAudioCopy v1.0b3
#
DISCID=840af80a
DTITLE=Truong Vu - Tro Ve Cat Bui
DYEAR=1996
DGENRE=
TTITLE0=Nhan co cho em
TTITLE1=Tro ve cat bui
TTITLE2=Phien khuc chieu mua
TTITLE3=Hai ban tay trang
TTITLE4=Tren 4 vung chien thuat
TTITLE5=Doan tai but
TTITLE6=Nhat ky doi toi
TTITLE7=Xin goi nhau la co nhan
TTITLE8=Muc tim mong toi
TTITLE9=Vang tran suy tu
EXTD=
EXTT0=
EXTT1=
EXTT2=
EXTT3=
EXTT4=
EXTT5=
EXTT6=
EXTT7=
EXTT8=
EXTT9=
PLAYORDER=
